HIERARCHY
ROOT hip
{
  OFFSET 0 0 0
  CHANNELS 6 Xposition Yposition Zposition Zrotation Yrotation Xrotation
  JOINT abdomen
  {
    OFFSET 0 20.6881 -0.73152
    CHANNELS 3 Zrotation Xrotation Yrotation
    JOINT chest
    {
      OFFSET 0 11.7043 -0.48768
      CHANNELS 3 Zrotation Xrotation Yrotation
      JOINT neck
      {
        OFFSET 0 22.1894 -2.19456
        CHANNELS 3 Zrotation Xrotation Yrotation
        JOINT head
        {
          OFFSET -0.24384 7.07133 1.2192
          CHANNELS 3 Zrotation Xrotation Yrotation
          JOINT leftEye
          {
            OFFSET 4.14528 8.04674 8.04672
            CHANNELS 3 Zrotation Xrotation Yrotation
            End Site
            {
              OFFSET 1 0 0
            }
          }
          JOINT rightEye
          {
            OFFSET -3.6576 8.04674 8.04672
            CHANNELS 3 Zrotation Xrotation Yrotation
            End Site
            {
              OFFSET 1 0 0
            }
          }
        }
      }
      JOINT rCollar
      {
        OFFSET -2.68224 19.2634 -4.8768
        CHANNELS 3 Zrotation Xrotation Yrotation
        JOINT rShldr
        {
          OFFSET -8.77824 -1.95073 1.46304
          CHANNELS 3 Zrotation Xrotation Yrotation
          JOINT rForeArm
          {
            OFFSET -28.1742 -1.7115 0.48768
            CHANNELS 3 Zrotation Xrotation Yrotation
            JOINT rHand
            {
              OFFSET -22.5879 0.773209 7.07136
              CHANNELS 3 Zrotation Xrotation Yrotation
              JOINT rThumb1
              {
                OFFSET -1.2192 -0.487915 3.41376
                CHANNELS 3 Zrotation Xrotation Yrotation
                JOINT rThumb2
                {
                  OFFSET -3.37035 -0.52449 3.41376
                  CHANNELS 3 Zrotation Xrotation Yrotation
                  End Site
                  {
                    OFFSET -1.78271 -1.18214 1.43049
                  }
                }
              }
              JOINT rIndex1
              {
                OFFSET -7.75947 0.938293 5.60832
                CHANNELS 3 Zrotation Xrotation Yrotation
                JOINT rIndex2
                {
                  OFFSET -2.54057 -0.884171 1.56538
                  CHANNELS 3 Zrotation Xrotation Yrotation
                  End Site
                  {
                    OFFSET -1.62519 -0.234802 1.16502
                  }
                }
              }
              JOINT rMid1
              {
                OFFSET -8.24714 1.18213 3.41376
                CHANNELS 3 Zrotation Xrotation Yrotation
                JOINT rMid2
                {
                  OFFSET -3.10165 -0.590103 1.0647
                  CHANNELS 3 Zrotation Xrotation Yrotation
                  End Site
                  {
                    OFFSET -2.48547 -0.328903 0.83742
                  }
                }
              }
              JOINT rRing1
              {
                OFFSET -8.82822 0.546677 1.51678
                CHANNELS 3 Zrotation Xrotation Yrotation
                JOINT rRing2
                {
                  OFFSET -2.60934 -0.819778 -0.0198488
                  CHANNELS 3 Zrotation Xrotation Yrotation
                  End Site
                  {
                    OFFSET -2.33842 -0.294052 0.168128
                  }
                }
              }
              JOINT rPinky1
              {
                OFFSET -8.27202 -0.0477905 -0.4584
                CHANNELS 3 Zrotation Xrotation Yrotation
                JOINT rPinky2
                {
                  OFFSET -1.82734 -0.647385 -0.700984
                  CHANNELS 3 Zrotation Xrotation Yrotation
                  End Site
                  {
                    OFFSET -1.69225 -0.51767 -0.607171
                  }
                }
              }
            }
          }
        }
      }
      JOINT lCollar
      {
        OFFSET 2.68224 19.2634 -4.8768
        CHANNELS 3 Zrotation Xrotation Yrotation
        JOINT lShldr
        {
          OFFSET 8.77824 -1.95073 1.46304
          CHANNELS 3 Zrotation Xrotation Yrotation
          JOINT lForeArm
          {
            OFFSET 28.1742 -1.7115 0.48768
            CHANNELS 3 Zrotation Xrotation Yrotation
            JOINT lHand
            {
              OFFSET 22.5879 0.773209 7.07136
              CHANNELS 3 Zrotation Xrotation Yrotation
              JOINT lThumb1
              {
                OFFSET 1.2192 -0.487915 3.41376
                CHANNELS 3 Zrotation Xrotation Yrotation
                JOINT lThumb2
                {
                  OFFSET 3.37035 -0.52449 3.41376
                  CHANNELS 3 Zrotation Xrotation Yrotation
                  End Site
                  {
                    OFFSET 1.78271 -1.18214 1.43049
                  }
                }
              }
              JOINT lIndex1
              {
                OFFSET 7.75947 0.938293 5.60832
                CHANNELS 3 Zrotation Xrotation Yrotation
                JOINT lIndex2
                {
                  OFFSET 2.54057 -0.884171 1.56538
                  CHANNELS 3 Zrotation Xrotation Yrotation
                  End Site
                  {
                    OFFSET 1.62519 -0.234802 1.16502
                  }
                }
              }
              JOINT lMid1
              {
                OFFSET 8.24714 1.18213 3.41376
                CHANNELS 3 Zrotation Xrotation Yrotation
                JOINT lMid2
                {
                  OFFSET 3.10165 -0.590103 1.0647
                  CHANNELS 3 Zrotation Xrotation Yrotation
                  End Site
                  {
                    OFFSET 2.48547 -0.328903 0.83742
                  }
                }
              }
              JOINT lRing1
              {
                OFFSET 8.82822 0.546677 1.51678
                CHANNELS 3 Zrotation Xrotation Yrotation
                JOINT lRing2
                {
                  OFFSET 2.60934 -0.819778 -0.0198488
                  CHANNELS 3 Zrotation Xrotation Yrotation
                  End Site
                  {
                    OFFSET 2.33842 -0.294052 0.168128
                  }
                }
              }
              JOINT lPinky1
              {
                OFFSET 8.27202 -0.0477905 -0.4584
                CHANNELS 3 Zrotation Xrotation Yrotation
                JOINT lPinky2
                {
                  OFFSET 1.82734 -0.647385 -0.700984
                  CHANNELS 3 Zrotation Xrotation Yrotation
                  End Site
                  {
                    OFFSET 1.69225 -0.51767 -0.607171
                  }
                }
              }
            }
          }
        }
      }
    }
  }
  JOINT rButtock
  {
    OFFSET -8.77824 4.35084 1.2192
    CHANNELS 3 Zrotation Xrotation Yrotation
    JOINT rThigh
    {
      OFFSET 0 -1.70687 -2.19456
      CHANNELS 3 Zrotation Xrotation Yrotation
      JOINT rShin
      {
        OFFSET 0 -36.8199 0.73152
        CHANNELS 3 Zrotation Xrotation Yrotation
        JOINT rFoot
        {
          OFFSET 0.73152 -45.1104 -5.12064
          CHANNELS 3 Zrotation Xrotation Yrotation
          End Site
          {
            OFFSET -1.1221 -3.69964 12.103
          }
        }
      }
    }
  }
  JOINT lButtock
  {
    OFFSET 8.77824 4.35084 1.2192
    CHANNELS 3 Zrotation Xrotation Yrotation
    JOINT lThigh
    {
      OFFSET 0 -1.70687 -2.19456
      CHANNELS 3 Zrotation Xrotation Yrotation
      JOINT lShin
      {
        OFFSET 0 -36.8199 0.73152
        CHANNELS 3 Zrotation Xrotation Yrotation
        JOINT lFoot
        {
          OFFSET -0.73152 -45.1104 -5.12064
          CHANNELS 3 Zrotation Xrotation Yrotation
          End Site
          {
            OFFSET 1.1221 -3.69964 12.103
          }
        }
      }
    }
  }
}
MOTION
Frames:	8
Frame Time:	0.00833333
-0.467464 83.18 123.754 186.692 9.3899 -155.414 -11.1694 -18.8138 -6.17593 6.09884 14.0759 -1.88355 2.21981 10.8703 -11.8324 7.77328 -2.17586 -21.0674 -0.0 0.0 0.0 -0.0 0.0 0.0 -1.33812e-13 -4.78089e-13 2.02456e-13 85.1747 11.0914 -6.53781 -15.4926 -8.22432 28.6083 -0.0200732 -4.04106 -0.568887 2.57821e-10 5.42534e-10 4.58256e-09 4.34555e-10 9.52584e-10 7.93078e-09 2.57822e-10 5.42535e-10 4.58255e-09 7.73091 5.47488 0.417314 2.57819e-10 5.42533e-10 4.58256e-09 2.90554 0.965183 0.102902 2.57823e-10 5.42534e-10 4.58256e-09 10.2786 0.731801 0.0259123 2.57815e-10 5.42537e-10 4.58256e-09 2.22167 -0.733487 -0.20892 -1.33932e-13 -4.78066e-13 2.02273e-13 -65.9566 22.5442 -1.96763 13.6892 -6.70629 -24.9307 0.000791961 -0.821173 0.115416 -8.40303e-10 -2.63351e-09 -2.10057e-09 -1.464e-09 -4.55855e-09 -3.62666e-09 -8.40313e-10 -2.63352e-09 -2.10057e-09 -7.73091 5.47488 -0.417314 -8.40308e-10 -2.63352e-09 -2.10058e-09 -2.90554 0.965183 -0.102902 -8.40311e-10 -2.63352e-09 -2.10057e-09 -10.2786 0.731801 -0.0259123 -8.40295e-10 -2.63351e-09 -2.10057e-09 -2.22167 -0.733487 0.20892 -2.03217e-16 0.0 -3.88251e-19 -11.8402 -47.0911 1.28903 -0.103915 28.7516 0.797947 -2.86533 -10.3339 -16.1586 2.03217e-16 0.0 3.88251e-19 6.51968 -30.8086 -6.73728 0.0714341 21.1147 -0.541061 1.72519 -11.3788 10.0496
-0.138273 83.1793 123.635 186.949 9.1603 -155.491 -11.0709 -18.7137 -6.14088 6.24766 13.904 -1.89013 2.19922 10.9297 -11.9022 7.90329 -2.04393 -21.173 -0.0 0.0 0.0 -0.0 0.0 0.0 -2.20034e-13 -6.55133e-13 7.77722e-14 85.1521 10.9021 -6.78937 -15.4472 -8.18366 28.5139 -0.0198388 -4.01753 -0.565564 2.10599e-09 -3.20611e-10 5.44142e-09 3.629e-09 -5.39525e-10 9.41883e-09 2.10599e-09 -3.2061e-10 5.44141e-09 7.73091 5.47488 0.417314 2.10599e-09 -3.20611e-10 5.44143e-09 2.90554 0.965183 0.102902 2.10599e-09 -3.20611e-10 5.44142e-09 10.2786 0.731801 0.0259123 2.10598e-09 -3.20608e-10 5.44143e-09 2.22167 -0.733487 -0.20892 -2.20104e-13 -6.55107e-13 7.75792e-14 -65.7976 22.4252 -1.82032 13.6914 -6.70811 -24.9353 0.000616222 -0.721462 0.1014 2.994e-10 -2.56244e-09 -2.91264e-09 5.02454e-10 -4.43741e-09 -5.03124e-09 2.99389e-10 -2.56244e-09 -2.91263e-09 -7.73091 5.47488 -0.417314 2.99397e-10 -2.56245e-09 -2.91264e-09 -2.90554 0.965183 -0.102902 2.99388e-10 -2.56245e-09 -2.91263e-09 -10.2786 0.731801 -0.0259123 2.99406e-10 -2.56244e-09 -2.91264e-09 -2.22167 -0.733487 0.20892 -2.03217e-16 0.0 -3.88251e-19 -12.6269 -46.7243 1.1073 -0.0953384 27.8851 0.764687 -2.47208 -9.10062 -16.3616 2.03217e-16 0.0 3.88251e-19 7.0646 -30.7507 -6.86294 0.074993 21.3733 -0.552641 1.72825 -11.5917 10.1837
0.194213 83.1627 123.512 187.12 9.0084 -155.593 -10.97 -18.6488 -6.1147 6.3618 13.8036 -1.89783 2.20157 10.9769 -11.9566 8.02836 -1.9203 -21.2536 -0.0 0.0 0.0 -0.0 0.0 0.0 -2.42506e-13 -7.15638e-13 2.0773e-14 85.1622 10.7323 -6.99959 -15.4119 -8.15209 28.4406 -0.0195712 -3.99062 -0.561762 2.908e-09 -7.10842e-10 5.80763e-09 5.01562e-09 -1.21414e-09 1.00535e-08 2.908e-09 -7.10841e-10 5.80762e-09 7.73091 5.47488 0.417314 2.908e-09 -7.10841e-10 5.80764e-09 2.90554 0.965183 0.102902 2.908e-09 -7.10841e-10 5.80763e-09 10.2786 0.731801 0.0259123 2.90799e-09 -7.10839e-10 5.80764e-09 2.22167 -0.733487 -0.20892 -2.42545e-13 -7.15611e-13 2.05742e-14 -65.5884 22.2912 -1.70578 13.7013 -6.71593 -24.955 0.000532696 -0.659023 0.0926238 7.60566e-10 -2.57021e-09 -3.27329e-09 1.29816e-09 -4.45162e-09 -5.65516e-09 7.60555e-10 -2.57021e-09 -3.27328e-09 -7.73091 5.47488 -0.417314 7.60564e-10 -2.57022e-09 -3.27329e-09 -2.90554 0.965183 -0.102902 7.60553e-10 -2.57022e-09 -3.27329e-09 -10.2786 0.731801 -0.0259123 7.60571e-10 -2.57021e-09 -3.27329e-09 -2.22167 -0.733487 0.20892 -2.03217e-16 0.0 -3.88251e-19 -13.3429 -46.3788 1.05627 -0.0866407 27.0197 0.732783 -2.13092 -8.05017 -16.6266 2.03217e-16 0.0 3.88251e-19 7.6283 -30.6789 -6.96384 0.078459 21.6172 -0.563186 1.72573 -11.8254 10.2698
0.554317 83.1408 123.379 187.316 8.9426 -155.698 -10.8544 -18.6408 -6.08463 6.41555 13.8222 -1.90273 2.23893 11.0051 -11.9891 8.14695 -1.80063 -21.2982 -0.0 0.0 0.0 -0.0 0.0 0.0 -1.61372e-13 -5.92641e-13 7.66428e-14 85.223 10.5869 -7.14865 -15.3944 -8.13642 28.4044 -0.0193253 -3.96515 -0.558165 2.00815e-09 -3.14687e-10 5.47023e-09 3.46114e-09 -5.29035e-10 9.46939e-09 2.00815e-09 -3.14686e-10 5.47022e-09 7.73091 5.47488 0.417314 2.00814e-09 -3.14686e-10 5.47023e-09 2.90554 0.965183 0.102902 2.00815e-09 -3.14686e-10 5.47023e-09 10.2786 0.731801 0.0259123 2.00814e-09 -3.14686e-10 5.47024e-09 2.22167 -0.733487 -0.20892 -1.61407e-13 -5.92613e-13 7.64451e-14 -65.3033 22.1256 -1.64462 13.7191 -6.72996 -24.9905 0.000518918 -0.637626 0.0896165 6.62789e-11 -2.78628e-09 -2.95026e-09 9.97674e-11 -4.8246e-09 -5.09665e-09 6.62695e-11 -2.78628e-09 -2.95025e-09 -7.73091 5.47488 -0.417314 6.62788e-11 -2.78628e-09 -2.95025e-09 -2.90554 0.965183 -0.102902 6.62669e-11 -2.78628e-09 -2.95025e-09 -10.2786 0.731801 -0.0259123 6.62821e-11 -2.78628e-09 -2.95026e-09 -2.22167 -0.733487 0.20892 -2.03217e-16 0.0 -3.88251e-19 -13.9492 -46.0563 1.20302 -0.0774631 26.151 0.702727 -1.85887 -7.22102 -16.9804 2.03217e-16 0.0 3.88251e-19 8.21854 -30.5578 -7.0372 0.0817007 21.8179 -0.571616 1.71793 -12.0974 10.2954
0.926093 83.1229 123.262 187.638 8.8239 -155.749 -10.7281 -18.6714 -6.05357 6.43068 13.9147 -1.90601 2.30197 11.0222 -12.0077 8.25845 -1.68271 -21.3199 -0.0 0.0 0.0 -0.0 0.0 0.0 -1.39429e-14 -3.52261e-13 2.01565e-13 85.3202 10.4584 -7.26277 -15.3882 -8.13088 28.3916 -0.0190561 -3.93666 -0.554144 6.87834e-11 5.5901e-10 4.67161e-09 1.1037e-10 9.81678e-10 8.08639e-09 6.87836e-11 5.59011e-10 4.6716e-09 7.73091 5.47488 0.417314 6.87812e-11 5.59011e-10 4.67161e-09 2.90554 0.965183 0.102902 6.87898e-11 5.5901e-10 4.67161e-09 10.2786 0.731801 0.0259123 6.87758e-11 5.5901e-10 4.67161e-09 2.22167 -0.733487 -0.20892 -1.39906e-14 -3.52232e-13 2.01369e-13 -64.9697 21.9313 -1.6109 13.7428 -6.74872 -25.0381 0.000538692 -0.639515 0.0898823 -1.32627e-09 -3.11329e-09 -2.1966e-09 -2.30356e-09 -5.3885e-09 -3.79346e-09 -1.32628e-09 -3.11329e-09 -2.19658e-09 -7.73091 5.47488 -0.417314 -1.32627e-09 -3.11329e-09 -2.19659e-09 -2.90554 0.965183 -0.102902 -1.32628e-09 -3.1133e-09 -2.19659e-09 -10.2786 0.731801 -0.0259123 -1.32627e-09 -3.1133e-09 -2.1966e-09 -2.22167 -0.733487 0.20892 -2.03217e-16 0.0 -3.88251e-19 -14.4751 -45.7353 1.49177 -0.0680041 25.2693 0.673441 -1.62475 -6.52071 -17.4023 2.03217e-16 0.0 3.88251e-19 8.83277 -30.4039 -7.09284 0.084753 21.9886 -0.578394 1.70404 -12.4002 10.2681
1.30194 83.1118 123.137 187.982 8.6422 -155.779 -10.6156 -18.7052 -6.04792 6.44882 14.0082 -1.91561 2.37028 11.0373 -12.0209 8.3661 -1.57772 -21.3334 -0.0 0.0 0.0 -0.0 0.0 0.0 1.38086e-13 -9.55801e-14 3.26736e-13 85.4257 10.3414 -7.36719 -15.3811 -8.12461 28.3769 -0.0186808 -3.89763 -0.548631 -1.93152e-09 1.43657e-09 3.70463e-09 -3.34544e-09 2.49858e-09 6.4119e-09 -1.93152e-09 1.43658e-09 3.70462e-09 7.73091 5.47488 0.417314 -1.93152e-09 1.43657e-09 3.70463e-09 2.90554 0.965183 0.102902 -1.93151e-09 1.43657e-09 3.70463e-09 10.2786 0.731801 0.0259123 -1.93153e-09 1.43657e-09 3.70464e-09 2.22167 -0.733487 -0.20892 1.38021e-13 -9.55515e-14 3.26541e-13 -64.6252 21.7436 -1.57752 13.7732 -6.77279 -25.0989 0.0005835 -0.669528 0.0941008 -2.68691e-09 -3.33298e-09 -1.34514e-09 -4.65118e-09 -5.76654e-09 -2.32124e-09 -2.68691e-09 -3.33298e-09 -1.34512e-09 -7.73091 5.47488 -0.417314 -2.68691e-09 -3.33298e-09 -1.34513e-09 -2.90554 0.965183 -0.102902 -2.68692e-09 -3.33298e-09 -1.34513e-09 -10.2786 0.731801 -0.0259123 -2.68691e-09 -3.33298e-09 -1.34514e-09 -2.22167 -0.733487 0.20892 -2.03217e-16 0.0 -3.88251e-19 -14.9991 -45.4279 1.80447 -0.0587058 24.392 0.644444 -1.4133 -5.93154 -17.8381 2.03217e-16 0.0 3.88251e-19 9.45527 -30.2844 -7.1298 0.0878004 22.1837 -0.585569 1.68163 -12.701 10.2098
1.68418 83.0839 122.989 188.249 8.4334 -155.856 -10.5415 -18.7066 -6.09414 6.5116 14.0297 -1.93944 2.42351 11.0594 -12.0376 8.47327 -1.49689 -21.3532 -0.0 0.0 0.0 -0.0 0.0 0.0 2.33022e-13 7.63193e-14 3.83356e-13 85.5114 10.2307 -7.48712 -15.3609 -8.10678 28.3348 -0.0181238 -3.8405 -0.540565 -3.01419e-09 1.84433e-09 2.86216e-09 -5.21503e-09 3.20226e-09 4.95329e-09 -3.01419e-09 1.84433e-09 2.86215e-09 7.73091 5.47488 0.417314 -3.01419e-09 1.84433e-09 2.86216e-09 2.90554 0.965183 0.102902 -3.01418e-09 1.84433e-09 2.86216e-09 10.2786 0.731801 0.0259123 -3.0142e-09 1.84432e-09 2.86217e-09 2.22167 -0.733487 -0.20892 2.32944e-13 7.63471e-14 3.83157e-13 -64.3075 21.5983 -1.51744 13.8109 -6.8028 -25.1743 0.000658095 -0.732501 0.102952 -3.28548e-09 -3.22708e-09 -7.287e-10 -5.68241e-09 -5.58196e-09 -1.25567e-09 -3.28548e-09 -3.22708e-09 -7.28687e-10 -7.73091 5.47488 -0.417314 -3.28548e-09 -3.22708e-09 -7.287e-10 -2.90554 0.965183 -0.102902 -3.28548e-09 -3.22708e-09 -7.28697e-10 -10.2786 0.731801 -0.0259123 -3.28548e-09 -3.22708e-09 -7.28706e-10 -2.22167 -0.733487 0.20892 -2.03217e-16 0.0 -3.88251e-19 -15.5956 -45.1471 2.02595 -0.050004 23.5366 0.615236 -1.21127 -5.43537 -18.234 2.03217e-16 0.0 3.88251e-19 10.0702 -30.2664 -7.14713 0.0910899 22.4576 -0.595219 1.64882 -12.9671 10.1423
2.06673 83.0455 122.854 188.456 8.2833 -155.916 -10.5274 -18.662 -6.25153 6.65005 13.9281 -1.99399 2.45349 11.0962 -12.0601 8.58148 -1.46673 -21.3839 -0.0 0.0 0.0 -0.0 0.0 0.0 2.43492e-13 1.28998e-13 3.3279e-13 85.5652 10.1287 -7.62074 -15.3204 -8.07096 28.2505 -0.0172752 -3.75231 -0.528113 -2.66911e-09 1.5483e-09 2.09813e-09 -4.61636e-09 2.68736e-09 3.6311e-09 -2.66911e-09 1.54831e-09 2.09812e-09 7.73091 5.47488 0.417314 -2.66911e-09 1.5483e-09 2.09813e-09 2.90554 0.965183 0.102902 -2.6691e-09 1.5483e-09 2.09813e-09 10.2786 0.731801 0.0259123 -2.66912e-09 1.5483e-09 2.09814e-09 2.22167 -0.733487 -0.20892 2.43409e-13 1.29024e-13 3.32579e-13 -64.026 21.5185 -1.42552 13.8585 -6.84085 -25.2696 0.000828167 -0.849145 0.119347 -2.63183e-09 -2.50422e-09 -3.90263e-10 -4.55006e-09 -4.33091e-09 -6.71183e-10 -2.63183e-09 -2.50422e-09 -3.90252e-10 -7.73091 5.47488 -0.417314 -2.63183e-09 -2.50422e-09 -3.90266e-10 -2.90554 0.965183 -0.102902 -2.63184e-09 -2.50422e-09 -3.90263e-10 -10.2786 0.731801 -0.0259123 -2.63183e-09 -2.50422e-09 -3.90273e-10 -2.22167 -0.733487 0.20892 -2.03217e-16 0.0 -3.88251e-19 -16.3395 -44.9403 2.07007 -0.0416686 22.7185 0.586497 -1.03602 -5.08402 -18.5978 2.03217e-16 0.0 3.88251e-19 10.6831 -30.4805 -7.12927 0.0951705 22.8903 -0.609319 1.58901 -13.1883 10.0196
